<svg width="34" height="35" viewBox="0 0 34 35" fill="none" xmlns="http://www.w3.org/2000/svg">
<circle cx="17" cy="17.2803" r="16.5" fill="#7AB7A7" stroke="#E4E4E9"/>
<path fill-rule="evenodd" clip-rule="evenodd" d="M11.3293 10.0833C10.6345 10.0833 10.0712 10.6483 10.0712 11.3453V22.4337C10.0712 23.1307 10.6345 23.6958 11.3293 23.6958H22.5618C23.2566 23.6958 23.8198 23.1307 23.8198 22.4337V11.3453C23.8198 10.6483 23.2566 10.0833 22.5618 10.0833H11.3293ZM8.27405 11.3453C8.27405 9.65255 9.64193 8.28027 11.3293 8.28027H22.5618C24.2492 8.28027 25.617 9.65255 25.617 11.3453V22.4337C25.617 24.1265 24.2492 25.4987 22.5618 25.4987H11.3293C9.64193 25.4987 8.27405 24.1265 8.27405 22.4337V11.3453Z" fill="white"/>
<path d="M20.8303 11.8341C21.5101 11.8341 22.0616 12.3866 22.0618 13.0685V20.7101C22.0616 21.392 21.5101 21.9445 20.8303 21.9445H13.0598C12.3801 21.9444 11.8295 21.3919 11.8293 20.7101V13.0685C11.8295 12.3866 12.3801 11.8342 13.0598 11.8341H20.8303ZM20.6067 13.2823C20.3782 13.054 20.0081 13.0541 19.7795 13.2823L18.7356 14.3253C18.2286 13.9684 17.6119 13.7579 16.9456 13.7579C16.3068 13.7579 15.7127 13.9501 15.218 14.2804L14.2209 13.2823C13.9925 13.0539 13.6224 13.0542 13.3938 13.2823C13.1652 13.5109 13.1652 13.8819 13.3938 14.1105L14.384 15.1007C14.0314 15.6079 13.8235 16.2245 13.8235 16.8898C13.8236 17.5548 14.0316 18.1708 14.384 18.6779L13.3938 19.6691C13.1653 19.8977 13.1652 20.2676 13.3938 20.4962C13.6224 20.7245 13.9924 20.7246 14.2209 20.4962L15.219 19.4972C15.7137 19.8275 16.3068 20.0216 16.9456 20.0216C17.6122 20.0216 18.2285 19.8094 18.7356 19.4523L19.7795 20.4962C20.0081 20.7246 20.3781 20.7246 20.6067 20.4962C20.8352 20.2677 20.8351 19.8977 20.6067 19.6691L19.55 18.6124C19.8757 18.118 20.0676 17.5267 20.0676 16.8898C20.0676 16.2523 19.8761 15.6599 19.55 15.1652L20.6067 14.1105C20.8353 13.8819 20.8353 13.5109 20.6067 13.2823ZM16.9456 14.9122C18.0338 14.9123 18.9163 15.7981 18.9163 16.8898C18.9161 17.9813 18.0336 18.8663 16.9456 18.8663C15.8575 18.8663 14.975 17.9813 14.9749 16.8898C14.9749 15.7981 15.8573 14.9122 16.9456 14.9122Z" fill="white"/>
<path fill-rule="evenodd" clip-rule="evenodd" d="M11.2838 25.6267C11.2838 25.2658 11.5755 24.9731 11.9353 24.9731H14.047C14.4068 24.9731 14.6985 25.2658 14.6985 25.6267C14.6985 25.9877 14.4068 26.2803 14.047 26.2803H11.9353C11.5755 26.2803 11.2838 25.9877 11.2838 25.6267Z" fill="white"/>
<path fill-rule="evenodd" clip-rule="evenodd" d="M19.282 25.6267C19.282 25.2658 19.5737 24.9731 19.9335 24.9731H22.0452C22.405 24.9731 22.6967 25.2658 22.6967 25.6267C22.6967 25.9877 22.405 26.2803 22.0452 26.2803H19.9335C19.5737 26.2803 19.282 25.9877 19.282 25.6267Z" fill="white"/>
</svg>
